{
	"patcher" : 	{
		"fileversion" : 1,
		"appversion" : 		{
			"major" : 6,
			"minor" : 1,
			"revision" : 9,
			"architecture" : "x64"
		}
,
		"rect" : [ 230.0, 51.0, 533.0, 649.0 ],
		"bgcolor" : [ 0.088473, 0.087891, 0.105236, 1.0 ],
		"bglocked" : 0,
		"openinpresentation" : 1,
		"default_fontsize" : 12.0,
		"default_fontface" : 0,
		"default_fontname" : "DIN Alternate Bold",
		"gridonopen" : 0,
		"gridsize" : [ 15.0, 15.0 ],
		"gridsnaponopen" : 0,
		"statusbarvisible" : 2,
		"toolbarvisible" : 1,
		"boxanimatetime" : 200,
		"imprint" : 0,
		"enablehscroll" : 1,
		"enablevscroll" : 1,
		"devicewidth" : 0.0,
		"description" : "",
		"digest" : "",
		"tags" : "",
		"boxes" : [ 			{
				"box" : 				{
					"bgcolor" : [ 0.277402, 0.317083, 0.316265, 1.0 ],
					"bgoncolor" : [ 0.748738, 0.906562, 0.912242, 1.0 ],
					"bgovercolor" : [ 0.277402, 0.317083, 0.316265, 1.0 ],
					"bgoveroncolor" : [ 0.748738, 0.906562, 0.912242, 1.0 ],
					"border" : 0,
					"bordercolor" : [ 0.088473, 0.087891, 0.105236, 1.0 ],
					"borderoncolor" : [ 0.088473, 0.087891, 0.105236, 1.0 ],
					"fontname" : "DIN Alternate Bold",
					"fontsize" : 10.0,
					"id" : "obj-6",
					"maxclass" : "textbutton",
					"numinlets" : 1,
					"numoutlets" : 3,
					"outlettype" : [ "", "", "int" ],
					"parameter_enable" : 0,
					"patching_rect" : [ 364.328552, 197.0, 48.0, 16.0 ],
					"presentation" : 1,
					"presentation_rect" : [ 311.0, 1.0, 48.0, 16.0 ],
					"rounded" : 0.0,
					"text" : "OPEN",
					"textcolor" : [ 0.44409, 0.592425, 0.595055, 1.0 ],
					"texton" : "SAVE",
					"textoncolor" : [ 0.277402, 0.317083, 0.316265, 1.0 ],
					"textovercolor" : [ 0.44409, 0.592425, 0.595055, 1.0 ],
					"textoveroncolor" : [ 0.277402, 0.317083, 0.316265, 1.0 ]
				}

			}
, 			{
				"box" : 				{
					"fontname" : "DIN Alternate Bold",
					"fontsize" : 12.0,
					"id" : "obj-7",
					"maxclass" : "message",
					"numinlets" : 2,
					"numoutlets" : 1,
					"outlettype" : [ "" ],
					"patching_rect" : [ 364.328552, 221.0, 33.0, 18.0 ],
					"presentation_rect" : [ 364.328552, 221.0, 0.0, 0.0 ],
					"text" : "read"
				}

			}
, 			{
				"box" : 				{
					"fontname" : "DIN Alternate Bold",
					"fontsize" : 12.0,
					"id" : "obj-5",
					"maxclass" : "message",
					"numinlets" : 2,
					"numoutlets" : 1,
					"outlettype" : [ "" ],
					"patching_rect" : [ 494.0, 275.0, 36.0, 18.0 ],
					"text" : "clear"
				}

			}
, 			{
				"box" : 				{
					"annotation" : "connect to pattrstorage",
					"comment" : "connect to pattrstorage",
					"hint" : "connect to pattrstorage",
					"id" : "obj-3",
					"maxclass" : "outlet",
					"numinlets" : 1,
					"numoutlets" : 0,
					"patching_rect" : [ 201.714294, 422.0, 25.0, 25.0 ]
				}

			}
, 			{
				"box" : 				{
					"bgcolor" : [ 0.277402, 0.317083, 0.316265, 1.0 ],
					"bgoncolor" : [ 0.748738, 0.906562, 0.912242, 1.0 ],
					"bgovercolor" : [ 0.277402, 0.317083, 0.316265, 1.0 ],
					"bgoveroncolor" : [ 0.748738, 0.906562, 0.912242, 1.0 ],
					"border" : 0,
					"bordercolor" : [ 0.088473, 0.087891, 0.105236, 1.0 ],
					"borderoncolor" : [ 0.088473, 0.087891, 0.105236, 1.0 ],
					"fontname" : "FontAwesome",
					"fontsize" : 9.0,
					"id" : "obj-40",
					"maxclass" : "textbutton",
					"mode" : 1,
					"numinlets" : 1,
					"numoutlets" : 3,
					"outlettype" : [ "", "", "int" ],
					"parameter_enable" : 0,
					"patching_rect" : [ 77.0, 268.0, 17.0, 17.0 ],
					"presentation" : 1,
					"presentation_rect" : [ 458.0, 1.0, 16.0, 16.0 ],
					"rounded" : 0.0,
					"text" : "",
					"textcolor" : [ 0.44409, 0.592425, 0.595055, 1.0 ],
					"texton" : "",
					"textoncolor" : [ 0.277402, 0.317083, 0.316265, 1.0 ],
					"textovercolor" : [ 0.44409, 0.592425, 0.595055, 1.0 ],
					"textoveroncolor" : [ 0.277402, 0.317083, 0.316265, 1.0 ]
				}

			}
, 			{
				"box" : 				{
					"bgcolor" : [ 0.277402, 0.317083, 0.316265, 1.0 ],
					"bgoncolor" : [ 0.748738, 0.906562, 0.912242, 1.0 ],
					"bgovercolor" : [ 0.277402, 0.317083, 0.316265, 1.0 ],
					"bgoveroncolor" : [ 0.748738, 0.906562, 0.912242, 1.0 ],
					"border" : 0,
					"bordercolor" : [ 0.088473, 0.087891, 0.105236, 1.0 ],
					"borderoncolor" : [ 0.088473, 0.087891, 0.105236, 1.0 ],
					"fontname" : "DIN Alternate Bold",
					"fontsize" : 10.0,
					"id" : "obj-39",
					"maxclass" : "textbutton",
					"numinlets" : 1,
					"numoutlets" : 3,
					"outlettype" : [ "", "", "int" ],
					"parameter_enable" : 0,
					"patching_rect" : [ 450.328552, 197.0, 48.0, 16.0 ],
					"presentation" : 1,
					"presentation_rect" : [ 409.0, 1.0, 48.0, 16.0 ],
					"rounded" : 0.0,
					"text" : "SORT",
					"textcolor" : [ 0.44409, 0.592425, 0.595055, 1.0 ],
					"texton" : "SAVE",
					"textoncolor" : [ 0.277402, 0.317083, 0.316265, 1.0 ],
					"textovercolor" : [ 0.44409, 0.592425, 0.595055, 1.0 ],
					"textoveroncolor" : [ 0.277402, 0.317083, 0.316265, 1.0 ]
				}

			}
, 			{
				"box" : 				{
					"fontname" : "DIN Alternate Bold",
					"fontsize" : 12.0,
					"id" : "obj-38",
					"maxclass" : "message",
					"numinlets" : 2,
					"numoutlets" : 1,
					"outlettype" : [ "" ],
					"patching_rect" : [ 450.328552, 221.0, 61.0, 18.0 ],
					"text" : "renumber"
				}

			}
, 			{
				"box" : 				{
					"fontname" : "DIN Alternate Bold",
					"fontsize" : 10.0,
					"frgb" : 0.0,
					"id" : "obj-36",
					"maxclass" : "comment",
					"numinlets" : 1,
					"numoutlets" : 0,
					"patching_rect" : [ 181.214294, 177.0, 129.0, 18.0 ],
					"presentation" : 1,
					"presentation_rect" : [ 228.0, 1.0, 32.0, 18.0 ],
					"text" : "DATA",
					"textcolor" : [ 0.748738, 0.906562, 0.912242, 1.0 ]
				}

			}
, 			{
				"box" : 				{
					"bgcolor" : [ 0.277402, 0.317083, 0.316265, 1.0 ],
					"bgoncolor" : [ 0.748738, 0.906562, 0.912242, 1.0 ],
					"bgovercolor" : [ 0.277402, 0.317083, 0.316265, 1.0 ],
					"bgoveroncolor" : [ 0.748738, 0.906562, 0.912242, 1.0 ],
					"border" : 0,
					"bordercolor" : [ 0.088473, 0.087891, 0.105236, 1.0 ],
					"borderoncolor" : [ 0.088473, 0.087891, 0.105236, 1.0 ],
					"fontname" : "DIN Alternate Bold",
					"fontsize" : 10.0,
					"id" : "obj-32",
					"maxclass" : "textbutton",
					"numinlets" : 1,
					"numoutlets" : 3,
					"outlettype" : [ "", "", "int" ],
					"parameter_enable" : 0,
					"patching_rect" : [ 181.214294, 197.0, 48.0, 16.0 ],
					"presentation" : 1,
					"presentation_rect" : [ 262.0, 1.0, 48.0, 16.0 ],
					"rounded" : 0.0,
					"text" : "RELOAD",
					"textcolor" : [ 0.44409, 0.592425, 0.595055, 1.0 ],
					"texton" : "SAVE",
					"textoncolor" : [ 0.277402, 0.317083, 0.316265, 1.0 ],
					"textovercolor" : [ 0.44409, 0.592425, 0.595055, 1.0 ],
					"textoveroncolor" : [ 0.277402, 0.317083, 0.316265, 1.0 ]
				}

			}
, 			{
				"box" : 				{
					"bgcolor" : [ 0.277402, 0.317083, 0.316265, 1.0 ],
					"bgoncolor" : [ 0.748738, 0.906562, 0.912242, 1.0 ],
					"bgovercolor" : [ 0.277402, 0.317083, 0.316265, 1.0 ],
					"bgoveroncolor" : [ 0.748738, 0.906562, 0.912242, 1.0 ],
					"border" : 0,
					"bordercolor" : [ 0.088473, 0.087891, 0.105236, 1.0 ],
					"borderoncolor" : [ 0.088473, 0.087891, 0.105236, 1.0 ],
					"fontname" : "DIN Alternate Bold",
					"fontsize" : 10.0,
					"id" : "obj-27",
					"maxclass" : "textbutton",
					"numinlets" : 1,
					"numoutlets" : 3,
					"outlettype" : [ "", "", "int" ],
					"parameter_enable" : 0,
					"patching_rect" : [ 230.542847, 197.0, 48.0, 16.0 ],
					"presentation" : 1,
					"presentation_rect" : [ 360.0, 1.0, 48.0, 16.0 ],
					"rounded" : 0.0,
					"text" : "WRITE",
					"textcolor" : [ 0.44409, 0.592425, 0.595055, 1.0 ],
					"texton" : "SAVE",
					"textoncolor" : [ 0.277402, 0.317083, 0.316265, 1.0 ],
					"textovercolor" : [ 0.44409, 0.592425, 0.595055, 1.0 ],
					"textoveroncolor" : [ 0.277402, 0.317083, 0.316265, 1.0 ]
				}

			}
, 			{
				"box" : 				{
					"fontname" : "DIN Alternate Bold",
					"fontsize" : 12.0,
					"id" : "obj-16",
					"maxclass" : "newobj",
					"numinlets" : 2,
					"numoutlets" : 4,
					"outlettype" : [ "dictionary", "", "", "" ],
					"patching_rect" : [ 299.714294, 284.0, 59.5, 20.0 ],
					"saved_object_attributes" : 					{
						"embed" : 0,
						"parameter_enable" : 0
					}
,
					"text" : "dict"
				}

			}
, 			{
				"box" : 				{
					"id" : "obj-13",
					"maxclass" : "button",
					"numinlets" : 1,
					"numoutlets" : 1,
					"outlettype" : [ "bang" ],
					"patching_rect" : [ 100.714294, 38.0, 45.0, 45.0 ]
				}

			}
, 			{
				"box" : 				{
					"fontname" : "DIN Alternate Bold",
					"fontsize" : 12.0,
					"id" : "obj-151",
					"maxclass" : "message",
					"numinlets" : 2,
					"numoutlets" : 1,
					"outlettype" : [ "" ],
					"patching_rect" : [ 611.328552, 221.0, 57.0, 18.0 ],
					"text" : "loadbang"
				}

			}
, 			{
				"box" : 				{
					"fontname" : "DIN Alternate Bold",
					"fontsize" : 12.0,
					"id" : "obj-150",
					"maxclass" : "message",
					"numinlets" : 2,
					"numoutlets" : 1,
					"outlettype" : [ "" ],
					"patching_rect" : [ 250.714294, 422.0, 151.0, 18.0 ],
					"text" : "clearchecks, checkitem $1 1"
				}

			}
, 			{
				"box" : 				{
					"bgcolor" : [ 0.277402, 0.317083, 0.316265, 1.0 ],
					"bgoncolor" : [ 0.748738, 0.906562, 0.912242, 1.0 ],
					"bgovercolor" : [ 0.277402, 0.317083, 0.316265, 1.0 ],
					"bgoveroncolor" : [ 0.748738, 0.906562, 0.912242, 1.0 ],
					"border" : 0,
					"bordercolor" : [ 0.088473, 0.087891, 0.105236, 1.0 ],
					"borderoncolor" : [ 0.088473, 0.087891, 0.105236, 1.0 ],
					"fontname" : "DIN Alternate Bold",
					"fontsize" : 10.0,
					"id" : "obj-20",
					"maxclass" : "textbutton",
					"numinlets" : 1,
					"numoutlets" : 3,
					"outlettype" : [ "", "", "int" ],
					"parameter_enable" : 0,
					"patching_rect" : [ 315.214294, 360.0, 48.0, 16.0 ],
					"presentation" : 1,
					"presentation_rect" : [ 178.0, 1.0, 48.0, 16.0 ],
					"rounded" : 0.0,
					"text" : "STORE",
					"textcolor" : [ 0.44409, 0.592425, 0.595055, 1.0 ],
					"texton" : "SAVE",
					"textoncolor" : [ 0.277402, 0.317083, 0.316265, 1.0 ],
					"textovercolor" : [ 0.44409, 0.592425, 0.595055, 1.0 ],
					"textoveroncolor" : [ 0.277402, 0.317083, 0.316265, 1.0 ]
				}

			}
, 			{
				"box" : 				{
					"bgcolor" : [ 0.277402, 0.317083, 0.316265, 1.0 ],
					"bgoncolor" : [ 0.748738, 0.906562, 0.912242, 1.0 ],
					"bgovercolor" : [ 0.277402, 0.317083, 0.316265, 1.0 ],
					"bgoveroncolor" : [ 0.748738, 0.906562, 0.912242, 1.0 ],
					"border" : 0,
					"bordercolor" : [ 0.088473, 0.087891, 0.105236, 1.0 ],
					"borderoncolor" : [ 0.088473, 0.087891, 0.105236, 1.0 ],
					"fontname" : "DIN Alternate Bold",
					"fontsize" : 10.0,
					"id" : "obj-147",
					"maxclass" : "textbutton",
					"numinlets" : 1,
					"numoutlets" : 3,
					"outlettype" : [ "", "", "int" ],
					"parameter_enable" : 0,
					"patching_rect" : [ 266.214294, 360.0, 48.0, 16.0 ],
					"presentation" : 1,
					"presentation_rect" : [ 129.0, 1.0, 48.0, 16.0 ],
					"rounded" : 0.0,
					"text" : "LOAD",
					"textcolor" : [ 0.44409, 0.592425, 0.595055, 1.0 ],
					"texton" : "BUTTON",
					"textoncolor" : [ 0.277402, 0.317083, 0.316265, 1.0 ],
					"textovercolor" : [ 0.44409, 0.592425, 0.595055, 1.0 ],
					"textoveroncolor" : [ 0.277402, 0.317083, 0.316265, 1.0 ]
				}

			}
, 			{
				"box" : 				{
					"fontname" : "DIN Alternate Bold",
					"fontsize" : 12.0,
					"id" : "obj-146",
					"maxclass" : "newobj",
					"numinlets" : 3,
					"numoutlets" : 1,
					"outlettype" : [ "" ],
					"patcher" : 					{
						"fileversion" : 1,
						"appversion" : 						{
							"major" : 6,
							"minor" : 1,
							"revision" : 9,
							"architecture" : "x64"
						}
,
						"rect" : [ 178.0, 72.0, 640.0, 480.0 ],
						"bglocked" : 0,
						"openinpresentation" : 0,
						"default_fontsize" : 12.0,
						"default_fontface" : 0,
						"default_fontname" : "DIN Alternate Bold",
						"gridonopen" : 0,
						"gridsize" : [ 15.0, 15.0 ],
						"gridsnaponopen" : 0,
						"statusbarvisible" : 2,
						"toolbarvisible" : 1,
						"boxanimatetime" : 200,
						"imprint" : 0,
						"enablehscroll" : 1,
						"enablevscroll" : 1,
						"devicewidth" : 0.0,
						"description" : "",
						"digest" : "",
						"tags" : "",
						"boxes" : [ 							{
								"box" : 								{
									"fontname" : "DIN Alternate Bold",
									"fontsize" : 12.0,
									"id" : "obj-121",
									"maxclass" : "newobj",
									"numinlets" : 2,
									"numoutlets" : 1,
									"outlettype" : [ "" ],
									"patching_rect" : [ 129.0, 70.0, 87.0, 20.0 ],
									"text" : "pack store sym"
								}

							}
, 							{
								"box" : 								{
									"fontname" : "DIN Alternate Bold",
									"fontsize" : 12.0,
									"id" : "obj-110",
									"maxclass" : "newobj",
									"numinlets" : 2,
									"numoutlets" : 1,
									"outlettype" : [ "" ],
									"patching_rect" : [ 33.0, 70.0, 83.0, 20.0 ],
									"text" : "pack load sym"
								}

							}
, 							{
								"box" : 								{
									"comment" : "",
									"id" : "obj-142",
									"maxclass" : "inlet",
									"numinlets" : 0,
									"numoutlets" : 1,
									"outlettype" : [ "" ],
									"patching_rect" : [ 33.0, 25.0, 25.0, 25.0 ]
								}

							}
, 							{
								"box" : 								{
									"comment" : "",
									"id" : "obj-143",
									"maxclass" : "inlet",
									"numinlets" : 0,
									"numoutlets" : 1,
									"outlettype" : [ "" ],
									"patching_rect" : [ 197.0, 25.0, 25.0, 25.0 ]
								}

							}
, 							{
								"box" : 								{
									"comment" : "",
									"id" : "obj-144",
									"maxclass" : "inlet",
									"numinlets" : 0,
									"numoutlets" : 1,
									"outlettype" : [ "" ],
									"patching_rect" : [ 129.0, 25.0, 25.0, 25.0 ]
								}

							}
, 							{
								"box" : 								{
									"comment" : "",
									"id" : "obj-145",
									"maxclass" : "outlet",
									"numinlets" : 1,
									"numoutlets" : 0,
									"patching_rect" : [ 33.0, 114.0, 25.0, 25.0 ]
								}

							}
 ],
						"lines" : [ 							{
								"patchline" : 								{
									"destination" : [ "obj-145", 0 ],
									"disabled" : 0,
									"hidden" : 0,
									"source" : [ "obj-110", 0 ]
								}

							}
, 							{
								"patchline" : 								{
									"destination" : [ "obj-145", 0 ],
									"disabled" : 0,
									"hidden" : 0,
									"source" : [ "obj-121", 0 ]
								}

							}
, 							{
								"patchline" : 								{
									"destination" : [ "obj-110", 0 ],
									"disabled" : 0,
									"hidden" : 0,
									"source" : [ "obj-142", 0 ]
								}

							}
, 							{
								"patchline" : 								{
									"destination" : [ "obj-110", 1 ],
									"disabled" : 0,
									"hidden" : 0,
									"source" : [ "obj-143", 0 ]
								}

							}
, 							{
								"patchline" : 								{
									"destination" : [ "obj-121", 1 ],
									"disabled" : 0,
									"hidden" : 0,
									"source" : [ "obj-143", 0 ]
								}

							}
, 							{
								"patchline" : 								{
									"destination" : [ "obj-121", 0 ],
									"disabled" : 0,
									"hidden" : 0,
									"source" : [ "obj-144", 0 ]
								}

							}
 ]
					}
,
					"patching_rect" : [ 266.214294, 384.0, 117.0, 20.0 ],
					"saved_object_attributes" : 					{
						"default_fontface" : 0,
						"default_fontname" : "DIN Alternate Bold",
						"default_fontsize" : 12.0,
						"description" : "",
						"digest" : "",
						"fontface" : 0,
						"fontname" : "DIN Alternate Bold",
						"fontsize" : 12.0,
						"globalpatchername" : "",
						"tags" : ""
					}
,
					"text" : "p"
				}

			}
, 			{
				"box" : 				{
					"fontname" : "DIN Alternate Bold",
					"fontsize" : 12.0,
					"id" : "obj-87",
					"maxclass" : "message",
					"numinlets" : 2,
					"numoutlets" : 1,
					"outlettype" : [ "" ],
					"patching_rect" : [ 526.328552, 221.0, 77.0, 18.0 ],
					"text" : "exportnames"
				}

			}
, 			{
				"box" : 				{
					"arrow" : 0,
					"bgcolor" : [ 0.152941, 0.176471, 0.172549, 1.0 ],
					"bgcolor2" : [ 0.243137, 0.231373, 0.243137, 1.0 ],
					"discolor" : [ 1.0, 0.999974, 0.999991, 1.0 ],
					"fontname" : "DIN Alternate Bold",
					"fontsize" : 10.0,
					"framecolor" : [ 0.501961, 0.501961, 0.501961, 0.0 ],
					"hltcolor" : [ 0.207843, 1.0, 0.921569, 1.0 ],
					"id" : "obj-85",
					"items" : [ "1 - ", ",", "2 - ", ",", "3 - ", ",", "4 - ", ",", "5 - PATTERN2", ",", "6 - ", ",", "7 - gege", ",", "8 - ", ",", "9 - ", ",", "10 - ", ",", "11 - ", ",", "12 - ", ",", "13 - ", ",", "14 - ", ",", "15 - ", ",", "16 - ", ",", "17 - ", ",", "18 - ", ",", "19 - ", ",", "20 - ", ",", "21 - ", ",", "22 - ", ",", "23 - ", ",", "24 - ", ",", "25 - ", ",", "26 - ", ",", "27 - ", ",", "28 - ", ",", "29 - ", ",", "30 - " ],
					"maxclass" : "umenu",
					"numinlets" : 1,
					"numoutlets" : 3,
					"outlettype" : [ "int", "", "" ],
					"parameter_enable" : 0,
					"patching_rect" : [ 250.714294, 334.0, 246.0, 18.0 ],
					"presentation" : 1,
					"presentation_rect" : [ -1.0, 0.0, 130.0, 18.0 ],
					"rounded" : 0,
					"textcolor" : [ 0.748738, 0.906562, 0.912242, 1.0 ],
					"textcolor2" : [ 0.748738, 0.906562, 0.912242, 1.0 ],
					"togcolor" : [ 0.748738, 0.906562, 0.912242, 1.0 ]
				}

			}
, 			{
				"box" : 				{
					"fontname" : "DIN Alternate Bold",
					"fontsize" : 12.0,
					"id" : "obj-80",
					"maxclass" : "newobj",
					"numinlets" : 1,
					"numoutlets" : 2,
					"outlettype" : [ "", "" ],
					"patching_rect" : [ 100.714294, 93.0, 71.0, 20.0 ],
					"text" : "patcherargs"
				}

			}
, 			{
				"box" : 				{
					"fontname" : "DIN Alternate Bold",
					"fontsize" : 12.0,
					"id" : "obj-79",
					"maxclass" : "newobj",
					"numinlets" : 2,
					"numoutlets" : 2,
					"outlettype" : [ "", "" ],
					"patching_rect" : [ 152.714294, 121.0, 84.0, 20.0 ],
					"text" : "route filename"
				}

			}
, 			{
				"box" : 				{
					"fontname" : "DIN Alternate Bold",
					"fontsize" : 12.0,
					"id" : "obj-75",
					"maxclass" : "newobj",
					"numinlets" : 1,
					"numoutlets" : 1,
					"outlettype" : [ "" ],
					"patching_rect" : [ 152.714294, 149.0, 99.0, 20.0 ],
					"text" : "prepend setname"
				}

			}
, 			{
				"box" : 				{
					"fontname" : "DIN Alternate Bold",
					"fontsize" : 12.0,
					"id" : "obj-71",
					"maxclass" : "message",
					"numinlets" : 2,
					"numoutlets" : 1,
					"outlettype" : [ "" ],
					"patching_rect" : [ 230.542847, 221.0, 58.0, 18.0 ],
					"text" : "overwrite"
				}

			}
, 			{
				"box" : 				{
					"fontname" : "DIN Alternate Bold",
					"fontsize" : 12.0,
					"id" : "obj-58",
					"maxclass" : "message",
					"numinlets" : 2,
					"numoutlets" : 1,
					"outlettype" : [ "" ],
					"patching_rect" : [ 181.214294, 221.0, 42.0, 18.0 ],
					"text" : "reload"
				}

			}
, 			{
				"box" : 				{
					"fontname" : "DIN Alternate Bold",
					"fontsize" : 12.0,
					"id" : "obj-47",
					"maxclass" : "newobj",
					"numinlets" : 1,
					"numoutlets" : 4,
					"outlettype" : [ "", "", "", "" ],
					"patching_rect" : [ 152.714294, 258.0, 166.0, 20.0 ],
					"saved_object_attributes" : 					{
						"filename" : "autopattrstorage.js",
						"parameter_enable" : 0
					}
,
					"text" : "js autopattrstorage.js"
				}

			}
, 			{
				"box" : 				{
					"annotation" : "attributes[ overwrite / reload / clear / storagewindow0or1 / read / init(do loadbang)",
					"comment" : "attributes[ overwrite / reload / clear / storagewindow0or1 / read / init(do loadbang)",
					"hint" : "attributes[ overwrite / reload / clear / storagewindow0or1 / read / init(do loadbang)",
					"id" : "obj-11",
					"maxclass" : "inlet",
					"numinlets" : 0,
					"numoutlets" : 1,
					"outlettype" : [ "" ],
					"patching_rect" : [ 60.0, 184.0, 25.0, 25.0 ]
				}

			}
, 			{
				"box" : 				{
					"fontname" : "DIN Alternate Bold",
					"fontsize" : 12.0,
					"id" : "obj-28",
					"maxclass" : "newobj",
					"numinlets" : 1,
					"numoutlets" : 1,
					"outlettype" : [ "" ],
					"patcher" : 					{
						"fileversion" : 1,
						"appversion" : 						{
							"major" : 6,
							"minor" : 1,
							"revision" : 9,
							"architecture" : "x64"
						}
,
						"rect" : [ 75.0, 119.0, 640.0, 480.0 ],
						"bglocked" : 0,
						"openinpresentation" : 0,
						"default_fontsize" : 12.0,
						"default_fontface" : 0,
						"default_fontname" : "DIN Alternate Bold",
						"gridonopen" : 0,
						"gridsize" : [ 15.0, 15.0 ],
						"gridsnaponopen" : 0,
						"statusbarvisible" : 2,
						"toolbarvisible" : 1,
						"boxanimatetime" : 200,
						"imprint" : 0,
						"enablehscroll" : 1,
						"enablevscroll" : 1,
						"devicewidth" : 0.0,
						"description" : "",
						"digest" : "",
						"tags" : "",
						"boxes" : [ 							{
								"box" : 								{
									"fontname" : "DIN Alternate Bold",
									"fontsize" : 12.0,
									"id" : "obj-6",
									"maxclass" : "message",
									"numinlets" : 2,
									"numoutlets" : 1,
									"outlettype" : [ "" ],
									"patching_rect" : [ 145.5, 186.0, 87.0, 18.0 ],
									"text" : "storagewindow"
								}

							}
, 							{
								"box" : 								{
									"fontname" : "DIN Alternate Bold",
									"fontsize" : 12.0,
									"id" : "obj-4",
									"maxclass" : "message",
									"numinlets" : 2,
									"numoutlets" : 1,
									"outlettype" : [ "" ],
									"patching_rect" : [ 63.0, 186.0, 80.0, 18.0 ],
									"text" : "storage_close"
								}

							}
, 							{
								"box" : 								{
									"fontname" : "DIN Alternate Bold",
									"fontsize" : 12.0,
									"id" : "obj-2",
									"maxclass" : "newobj",
									"numinlets" : 3,
									"numoutlets" : 3,
									"outlettype" : [ "", "", "" ],
									"patching_rect" : [ 63.0, 157.0, 184.0, 20.0 ],
									"text" : "route 0 1"
								}

							}
, 							{
								"box" : 								{
									"comment" : "",
									"id" : "obj-26",
									"maxclass" : "inlet",
									"numinlets" : 0,
									"numoutlets" : 1,
									"outlettype" : [ "" ],
									"patching_rect" : [ 63.0, 110.0, 25.0, 25.0 ]
								}

							}
, 							{
								"box" : 								{
									"comment" : "",
									"id" : "obj-27",
									"maxclass" : "outlet",
									"numinlets" : 1,
									"numoutlets" : 0,
									"patching_rect" : [ 63.0, 230.0, 25.0, 25.0 ]
								}

							}
 ],
						"lines" : [ 							{
								"patchline" : 								{
									"destination" : [ "obj-4", 0 ],
									"disabled" : 0,
									"hidden" : 0,
									"source" : [ "obj-2", 0 ]
								}

							}
, 							{
								"patchline" : 								{
									"destination" : [ "obj-6", 0 ],
									"disabled" : 0,
									"hidden" : 0,
									"source" : [ "obj-2", 1 ]
								}

							}
, 							{
								"patchline" : 								{
									"destination" : [ "obj-2", 0 ],
									"disabled" : 0,
									"hidden" : 0,
									"source" : [ "obj-26", 0 ]
								}

							}
, 							{
								"patchline" : 								{
									"destination" : [ "obj-27", 0 ],
									"disabled" : 0,
									"hidden" : 0,
									"source" : [ "obj-4", 0 ]
								}

							}
, 							{
								"patchline" : 								{
									"destination" : [ "obj-27", 0 ],
									"disabled" : 0,
									"hidden" : 0,
									"source" : [ "obj-6", 0 ]
								}

							}
 ]
					}
,
					"patching_rect" : [ 60.0, 303.0, 51.0, 20.0 ],
					"saved_object_attributes" : 					{
						"default_fontface" : 0,
						"default_fontname" : "DIN Alternate Bold",
						"default_fontsize" : 12.0,
						"description" : "",
						"digest" : "",
						"fontface" : 0,
						"fontname" : "DIN Alternate Bold",
						"fontsize" : 12.0,
						"globalpatchername" : "",
						"tags" : ""
					}
,
					"text" : "p strwin"
				}

			}
, 			{
				"box" : 				{
					"annotation" : "connect to pattrstorage",
					"comment" : "connect to pattrstorage",
					"hint" : "connect to pattrstorage",
					"id" : "obj-54",
					"maxclass" : "outlet",
					"numinlets" : 1,
					"numoutlets" : 0,
					"patching_rect" : [ 60.0, 422.0, 25.0, 25.0 ]
				}

			}
 ],
		"lines" : [ 			{
				"patchline" : 				{
					"destination" : [ "obj-28", 0 ],
					"disabled" : 0,
					"hidden" : 0,
					"source" : [ "obj-11", 0 ]
				}

			}
, 			{
				"patchline" : 				{
					"destination" : [ "obj-80", 0 ],
					"disabled" : 0,
					"hidden" : 0,
					"source" : [ "obj-13", 0 ]
				}

			}
, 			{
				"patchline" : 				{
					"destination" : [ "obj-47", 0 ],
					"disabled" : 0,
					"hidden" : 0,
					"midpoints" : [ 275.714294, 409.0, 133.357147, 409.0, 133.357147, 248.0, 162.214294, 248.0 ],
					"source" : [ "obj-146", 0 ]
				}

			}
, 			{
				"patchline" : 				{
					"destination" : [ "obj-146", 0 ],
					"disabled" : 0,
					"hidden" : 0,
					"source" : [ "obj-147", 0 ]
				}

			}
, 			{
				"patchline" : 				{
					"destination" : [ "obj-85", 0 ],
					"disabled" : 0,
					"hidden" : 0,
					"midpoints" : [ 260.214294, 457.0, 501.214294, 457.0, 501.214294, 307.0, 260.214294, 307.0 ],
					"source" : [ "obj-150", 0 ]
				}

			}
, 			{
				"patchline" : 				{
					"destination" : [ "obj-47", 0 ],
					"disabled" : 0,
					"hidden" : 0,
					"midpoints" : [ 620.828552, 248.0, 162.214294, 248.0 ],
					"source" : [ "obj-151", 0 ]
				}

			}
, 			{
				"patchline" : 				{
					"destination" : [ "obj-146", 1 ],
					"disabled" : 0,
					"hidden" : 0,
					"source" : [ "obj-20", 0 ]
				}

			}
, 			{
				"patchline" : 				{
					"destination" : [ "obj-71", 0 ],
					"disabled" : 0,
					"hidden" : 0,
					"source" : [ "obj-27", 0 ]
				}

			}
, 			{
				"patchline" : 				{
					"destination" : [ "obj-54", 0 ],
					"disabled" : 0,
					"hidden" : 0,
					"source" : [ "obj-28", 0 ]
				}

			}
, 			{
				"patchline" : 				{
					"destination" : [ "obj-58", 0 ],
					"disabled" : 0,
					"hidden" : 0,
					"source" : [ "obj-32", 0 ]
				}

			}
, 			{
				"patchline" : 				{
					"destination" : [ "obj-38", 0 ],
					"disabled" : 0,
					"hidden" : 0,
					"source" : [ "obj-39", 0 ]
				}

			}
, 			{
				"patchline" : 				{
					"destination" : [ "obj-28", 0 ],
					"disabled" : 0,
					"hidden" : 0,
					"source" : [ "obj-40", 0 ]
				}

			}
, 			{
				"patchline" : 				{
					"destination" : [ "obj-16", 0 ],
					"disabled" : 0,
					"hidden" : 0,
					"source" : [ "obj-47", 3 ]
				}

			}
, 			{
				"patchline" : 				{
					"destination" : [ "obj-3", 0 ],
					"disabled" : 0,
					"hidden" : 0,
					"source" : [ "obj-47", 1 ]
				}

			}
, 			{
				"patchline" : 				{
					"destination" : [ "obj-54", 0 ],
					"disabled" : 0,
					"hidden" : 0,
					"midpoints" : [ 162.214294, 330.5, 69.5, 330.5 ],
					"source" : [ "obj-47", 0 ]
				}

			}
, 			{
				"patchline" : 				{
					"destination" : [ "obj-85", 0 ],
					"disabled" : 0,
					"hidden" : 0,
					"source" : [ "obj-47", 2 ]
				}

			}
, 			{
				"patchline" : 				{
					"destination" : [ "obj-85", 0 ],
					"disabled" : 0,
					"hidden" : 0,
					"source" : [ "obj-5", 0 ]
				}

			}
, 			{
				"patchline" : 				{
					"destination" : [ "obj-47", 0 ],
					"disabled" : 0,
					"hidden" : 0,
					"midpoints" : [ 190.714294, 248.0, 162.214294, 248.0 ],
					"source" : [ "obj-58", 0 ]
				}

			}
, 			{
				"patchline" : 				{
					"destination" : [ "obj-7", 0 ],
					"disabled" : 0,
					"hidden" : 0,
					"source" : [ "obj-6", 0 ]
				}

			}
, 			{
				"patchline" : 				{
					"destination" : [ "obj-47", 0 ],
					"disabled" : 0,
					"hidden" : 0,
					"midpoints" : [ 373.828552, 248.0, 162.214294, 248.0 ],
					"source" : [ "obj-7", 0 ]
				}

			}
, 			{
				"patchline" : 				{
					"destination" : [ "obj-47", 0 ],
					"disabled" : 0,
					"hidden" : 0,
					"midpoints" : [ 240.042847, 248.0, 162.214294, 248.0 ],
					"source" : [ "obj-71", 0 ]
				}

			}
, 			{
				"patchline" : 				{
					"destination" : [ "obj-47", 0 ],
					"disabled" : 0,
					"hidden" : 0,
					"source" : [ "obj-75", 0 ]
				}

			}
, 			{
				"patchline" : 				{
					"destination" : [ "obj-75", 0 ],
					"disabled" : 0,
					"hidden" : 0,
					"source" : [ "obj-79", 0 ]
				}

			}
, 			{
				"patchline" : 				{
					"destination" : [ "obj-79", 0 ],
					"disabled" : 0,
					"hidden" : 0,
					"source" : [ "obj-80", 1 ]
				}

			}
, 			{
				"patchline" : 				{
					"destination" : [ "obj-146", 2 ],
					"disabled" : 0,
					"hidden" : 0,
					"source" : [ "obj-85", 1 ]
				}

			}
, 			{
				"patchline" : 				{
					"destination" : [ "obj-150", 0 ],
					"disabled" : 0,
					"hidden" : 0,
					"source" : [ "obj-85", 0 ]
				}

			}
, 			{
				"patchline" : 				{
					"destination" : [ "obj-47", 0 ],
					"disabled" : 0,
					"hidden" : 0,
					"midpoints" : [ 535.828552, 248.0, 162.214294, 248.0 ],
					"source" : [ "obj-87", 0 ]
				}

			}
 ]
	}

}
